<svg width="26" height="25" fill="none" xmlns="http://www.w3.org/2000/svg"><path d="M19.703 21.875a4.806 4.806 0 0 1-2.595-.757 4.535 4.535 0 0 1-1.721-2.016 4.333 4.333 0 0 1-.266-2.596 4.441 4.441 0 0 1 1.279-2.3 4.733 4.733 0 0 1 2.392-1.23 4.846 4.846 0 0 1 2.699.257c.854.34 1.583.915 2.097 1.654a4.37 4.37 0 0 1 .787 2.496 4.411 4.411 0 0 1-1.37 3.175 4.773 4.773 0 0 1-3.302 1.317Zm0-7.422c-.602 0-1.192.172-1.693.494-.5.322-.891.78-1.122 1.315a2.825 2.825 0 0 0-.173 1.692c.117.569.407 1.09.834 1.5.426.41.969.69 1.56.802a3.161 3.161 0 0 0 1.76-.166 3.024 3.024 0 0 0 1.367-1.08 2.85 2.85 0 0 0 .514-1.627 2.87 2.87 0 0 0-.893-2.07 3.114 3.114 0 0 0-2.154-.86ZM6.297 21.875a4.806 4.806 0 0 1-2.596-.757 4.535 4.535 0 0 1-1.72-2.016 4.332 4.332 0 0 1-.266-2.596 4.441 4.441 0 0 1 1.278-2.3 4.733 4.733 0 0 1 2.392-1.23 4.846 4.846 0 0 1 2.7.257c.853.34 1.583.915 2.096 1.654a4.37 4.37 0 0 1 .788 2.496 4.411 4.411 0 0 1-1.37 3.175 4.773 4.773 0 0 1-3.302 1.317Zm0-7.422c-.603 0-1.192.172-1.693.494-.5.322-.891.78-1.122 1.315a2.825 2.825 0 0 0-.173 1.692 2.89 2.89 0 0 0 .833 1.5c.427.41.97.69 1.56.802a3.161 3.161 0 0 0 1.76-.166 3.025 3.025 0 0 0 1.368-1.08 2.85 2.85 0 0 0 .514-1.627 2.87 2.87 0 0 0-.894-2.07 3.113 3.113 0 0 0-2.153-.86ZM16.25 6.25c.214 0 .426-.04.624-.118.198-.078.378-.194.529-.34.15-.145.27-.319.351-.51a1.51 1.51 0 0 0 .121-.6 1.49 1.49 0 0 0-.118-.597 1.522 1.522 0 0 0-.35-.507 1.609 1.609 0 0 0-.526-.338 1.659 1.659 0 0 0-.62-.115c-.214 0-.426.04-.623.117a1.63 1.63 0 0 0-.528.337 1.56 1.56 0 0 0-.354.506 1.511 1.511 0 0 0 .346 1.704 1.681 1.681 0 0 0 1.148.461Z" fill="#1D2E5B"/><path d="M18.665 9.375h-2.223a.209.209 0 0 1-.103-.027.199.199 0 0 1-.075-.075l-1.612-2.84a1.532 1.532 0 0 0-.477-.532 1.634 1.634 0 0 0-1.405-.212 1.587 1.587 0 0 0-.625.366L8.597 9.492a1.56 1.56 0 0 0-.472 1.094c0 .85.64 1.152.94 1.323a162.53 162.53 0 0 1 3.025 1.714.19.19 0 0 1 .098.166v3.376c0 .42.336.78.773.802a.843.843 0 0 0 .6-.215.78.78 0 0 0 .252-.564v-4.2a.756.756 0 0 0-.09-.356.79.79 0 0 0-.249-.278l-1.879-1.3a.198.198 0 0 1-.084-.14.188.188 0 0 1 .055-.153l2.133-2.187a.203.203 0 0 1 .173-.06.208.208 0 0 1 .153.099l1.108 1.923c.07.122.173.223.298.294.125.07.268.108.413.107h2.844a.839.839 0 0 0 .588-.241.776.776 0 0 0 .224-.577c-.021-.42-.398-.744-.835-.744Z" fill="#1D2E5B"/></svg>