<svg xmlns="http://www.w3.org/2000/svg" xmlns:xlink="http://www.w3.org/1999/xlink"><defs><clipPath id="a"><path fill="#fff" transform="translate(.154)" d="M0 0h18.72v20H0z"/></clipPath></defs><symbol id="htmlacademy"><g fill="none"><path d="M13.643.101 13.5.086 0 1.464v24.102l13.5 7.823L27 25.566V1.464L13.643.101ZM25.234 24.59l-11.734 6.8-11.734-6.8v-9.88l11.685 6.774.02 1.228-8.017-4.646-.011 1.2 8.046 4.71.02 1.26-8.045-4.66-.01 1.2 8.046 4.71 8.124-4.734v-5.103l3.62-2.105-.01 10.046Zm0-11.327-3.22 1.842-1.482.857-7.065-4.101-.011 1.2 6.04 3.5-.053.03-.13.074-.86.482-4.986-2.888-.011 1.2 3.936 2.28-.933.598-.021.012-2.971-1.706-.011 1.2 1.947 1.11-1.988 1.163-11.618-6.731 11.638-6.815 11.8 6.693Zm0-1.2L13.44 5.288 1.766 12.055v-9.04l11.734-1.2 11.734 1.2v9.047Z" fill="#192144"/></g></symbol><symbol id="icon-bicycle"><g fill="none"><path d="M19.703 21.875a4.806 4.806 0 0 1-2.595-.757 4.535 4.535 0 0 1-1.721-2.016 4.333 4.333 0 0 1-.266-2.596 4.441 4.441 0 0 1 1.279-2.3 4.733 4.733 0 0 1 2.392-1.23 4.846 4.846 0 0 1 2.699.257c.854.34 1.583.915 2.097 1.654a4.37 4.37 0 0 1 .787 2.496 4.411 4.411 0 0 1-1.37 3.175 4.773 4.773 0 0 1-3.302 1.317Zm0-7.422c-.602 0-1.192.172-1.693.494-.5.322-.891.78-1.122 1.315a2.825 2.825 0 0 0-.173 1.692c.117.569.407 1.09.834 1.5.426.41.969.69 1.56.802a3.161 3.161 0 0 0 1.76-.166 3.024 3.024 0 0 0 1.367-1.08 2.85 2.85 0 0 0 .514-1.627 2.87 2.87 0 0 0-.893-2.07 3.114 3.114 0 0 0-2.154-.86ZM6.297 21.875a4.806 4.806 0 0 1-2.596-.757 4.535 4.535 0 0 1-1.72-2.016 4.332 4.332 0 0 1-.266-2.596 4.441 4.441 0 0 1 1.278-2.3 4.733 4.733 0 0 1 2.392-1.23 4.846 4.846 0 0 1 2.7.257c.853.34 1.583.915 2.096 1.654a4.37 4.37 0 0 1 .788 2.496 4.411 4.411 0 0 1-1.37 3.175 4.773 4.773 0 0 1-3.302 1.317Zm0-7.422c-.603 0-1.192.172-1.693.494-.5.322-.891.78-1.122 1.315a2.825 2.825 0 0 0-.173 1.692 2.89 2.89 0 0 0 .833 1.5c.427.41.97.69 1.56.802a3.161 3.161 0 0 0 1.76-.166 3.025 3.025 0 0 0 1.368-1.08 2.85 2.85 0 0 0 .514-1.627 2.87 2.87 0 0 0-.894-2.07 3.113 3.113 0 0 0-2.153-.86ZM16.25 6.25c.214 0 .426-.04.624-.118.198-.078.378-.194.529-.34.15-.145.27-.319.351-.51a1.51 1.51 0 0 0 .121-.6 1.49 1.49 0 0 0-.118-.597 1.522 1.522 0 0 0-.35-.507 1.609 1.609 0 0 0-.526-.338 1.659 1.659 0 0 0-.62-.115c-.214 0-.426.04-.623.117a1.63 1.63 0 0 0-.528.337 1.56 1.56 0 0 0-.354.506 1.511 1.511 0 0 0 .346 1.704 1.681 1.681 0 0 0 1.148.461Z" fill="#1D2E5B"/><path d="M18.665 9.375h-2.223a.209.209 0 0 1-.103-.027.199.199 0 0 1-.075-.075l-1.612-2.84a1.532 1.532 0 0 0-.477-.532 1.634 1.634 0 0 0-1.405-.212 1.587 1.587 0 0 0-.625.366L8.597 9.492a1.56 1.56 0 0 0-.472 1.094c0 .85.64 1.152.94 1.323a162.53 162.53 0 0 1 3.025 1.714.19.19 0 0 1 .098.166v3.376c0 .42.336.78.773.802a.843.843 0 0 0 .6-.215.78.78 0 0 0 .252-.564v-4.2a.756.756 0 0 0-.09-.356.79.79 0 0 0-.249-.278l-1.879-1.3a.198.198 0 0 1-.084-.14.188.188 0 0 1 .055-.153l2.133-2.187a.203.203 0 0 1 .173-.06.208.208 0 0 1 .153.099l1.108 1.923c.07.122.173.223.298.294.125.07.268.108.413.107h2.844a.839.839 0 0 0 .588-.241.776.776 0 0 0 .224-.577c-.021-.42-.398-.744-.835-.744Z" fill="#1D2E5B"/></g></symbol><symbol id="icon-bus"><g fill="none"><g clip-path="url(#a)"><path d="M4.835 13.571c0-.394-.152-.73-.457-1.01a1.574 1.574 0 0 0-1.102-.418c-.43 0-.798.14-1.103.418a1.321 1.321 0 0 0-.457 1.01c0 .395.153.732.457 1.01.305.28.672.419 1.103.419.43 0 .798-.14 1.102-.418.305-.28.457-.616.457-1.01Zm12.475 0a1.32 1.32 0 0 0-.457-1.01 1.574 1.574 0 0 0-1.103-.418c-.43 0-.797.14-1.102.418a1.32 1.32 0 0 0-.457 1.01c0 .395.152.732.457 1.01.305.28.672.419 1.103.419.43 0 .798-.14 1.102-.418.305-.28.457-.616.457-1.01Zm-.56-4.42-.878-4.285a.72.72 0 0 0-.274-.418.794.794 0 0 0-.493-.162H3.92a.794.794 0 0 0-.493.162.72.72 0 0 0-.274.418l-.877 4.286c-.04.223.016.42.17.591a.767.767 0 0 0 .597.257h12.938a.767.767 0 0 0 .597-.257.664.664 0 0 0 .17-.591Zm-2.754-6.83a.496.496 0 0 0-.17-.379.591.591 0 0 0-.415-.156H5.615a.59.59 0 0 0-.414.156.496.496 0 0 0-.171.38c0 .148.057.275.17.379a.591.591 0 0 0 .415.156h7.796a.593.593 0 0 0 .415-.156.496.496 0 0 0 .17-.38Zm4.873 8.092v6.73h-1.56v1.428c0 .395-.151.731-.456 1.01A1.574 1.574 0 0 1 15.75 20c-.43 0-.797-.14-1.102-.419a1.32 1.32 0 0 1-.457-1.01v-1.428H4.835v1.428c0 .395-.152.731-.457 1.01A1.574 1.574 0 0 1 3.276 20c-.43 0-.798-.14-1.103-.419a1.321 1.321 0 0 1-.457-1.01v-1.428H.157v-6.73c0-.833.102-1.663.305-2.489l1.254-5.067c.073-.58.47-1.09 1.188-1.529C3.623.89 4.557.558 5.706.335 6.856.112 8.124 0 9.513 0c1.389 0 2.658.112 3.807.335 1.15.223 2.083.554 2.802.993.719.44 1.115.949 1.188 1.53l1.279 5.066c.187.759.28 1.589.28 2.489Z" fill="#1D2E5B"/></g></g></symbol><symbol id="icon-plane"><g fill="none"><path d="M17.535.18c-.805.18-1.613.362-1.914.859l-2.327 4.373L.8 8.215.293 9.612l9.561.853-1.622 3.786-3.626.813-.91 1.488 2.616.268.298 1.217c.134.432.603.72 1.003.63l1.209-.271 1.4 2.253.911-1.488-.895-3.65 2.626-3.157 5.01 8.293 1.01-1.081L15.8 6.989l2.831-4.057c.305-.498.106-1.308-.093-2.122-.099-.403-.603-.72-1.003-.63Z" fill="#1D2E5B"/></g></symbol><symbol id="icon-plus"><g fill="none"><path stroke="#C2C4C9" stroke-width="2" d="M7 0v14M0 7h14"/></g></symbol><symbol id="icon-run"><g fill="none"><path d="M16.188 6c1.045 0 1.891-.895 1.891-2s-.846-2-1.89-2c-1.045 0-1.892.895-1.892 2s.847 2 1.891 2Zm-1.156 4.969c.217.342.528.605.892.754a1.8 1.8 0 0 0 1.139.076l3.135-.829-.457-1.94-3.135.829-1.304-2.067a1.9 1.9 0 0 0-1.202-.854l-3.636-.77a1.797 1.797 0 0 0-1.202.164c-.373.193-.675.51-.86.903l-1.568 3.316 1.691.895 1.568-3.317 1.86.394L7.144 17H2.952v2h4.192c.66 0 1.281-.372 1.622-.971l1.813-3.196 4.887 1.034 1.717 5.449 1.793-.633-1.716-5.448a2.019 2.019 0 0 0-.544-.867 1.86 1.86 0 0 0-.88-.463l-2.874-.607 1.676-2.954.394.625Z" fill="#1D2E5B"/></g></symbol><symbol id="logo-back"><g fill="none"><path d="M78.016 10.62 44.736 42 32.59 1.772l45.427 8.849Z" fill="#FF8D30"/><ellipse cx="78.624" cy="28.474" rx="3.613" ry="3.572" fill="#88BFEB"/><ellipse cx="92.85" cy="18.086" rx="12.594" ry="12.45" fill="#EB9898"/><path fill="#72A73E" d="m85.439 19.575 43.818-16.03 8.258 22.06-43.818 16.029z"/><ellipse cx="91.334" cy="34.141" rx="2.117" ry="2.093" fill="#FFBD30"/><ellipse rx="18.919" ry="7.587" transform="matrix(.97025 .24212 -.24742 .9689 132.047 28.05)" fill="#8EC7F5"/><ellipse cx="146.385" cy="10.256" rx="2.153" ry="2.128" fill="#FFBD30"/><ellipse cx="153.101" cy="7.728" rx="2.153" ry="2.128" fill="#FFBD30"/><path d="M3.342 35.349h4.99v2.32a1 1 0 0 1-1 1h-2.99a1 1 0 0 1-1-1v-2.32ZM34.203 35.349h4.991v2.32a1 1 0 0 1-1 1h-2.99a1 1 0 0 1-1-1v-2.32Z" fill="#1D2959"/><path fill-rule="evenodd" clip-rule="evenodd" d="M23.92 2.938c-.973-.384-2.036-.693-2.808-.677-.726.014-1.721.325-2.629.7-.508.21-1.01.44-1.493.702l-.003.002a1.187 1.187 0 0 1-1.609-.462 1.175 1.175 0 0 1 .464-1.6c.166-.091.335-.177.505-.262.306-.15.735-.353 1.23-.557.948-.391 2.29-.76 3.488-.783 1.274-.025 2.712.346 3.728.747.634.25 1.26.527 1.86.849h.001c.575.31.79 1.024.478 1.597-.309.569-1.038.778-1.608.474a17.92 17.92 0 0 0-1.604-.73Z" fill="#8A4A38"/><path fill-rule="evenodd" clip-rule="evenodd" d="M15.993 1.45c-.531 0-.962.43-.962.961v.615c0 .442.36.801.802.801h.021v3.067h.84V3.805h-.22a1.189 1.189 0 0 0-.228-2.355h-.253ZM26.513 1.45c.53 0 .961.43.961.961v.615a.801.801 0 0 1-.801.801h-.022v3.067h-.839V3.805h.219a1.189 1.189 0 0 1 .228-2.355h.254Z" fill="#F6EF3E"/><path d="M0 15.52a9 9 0 0 1 9-9h24.54a9 9 0 0 1 9 9V35.35H0V15.52Z" fill="#8A4A38"/><ellipse cx="6.684" cy="27.928" rx="4.167" ry="4.121" fill="#EF9A9A"/><ellipse rx="4.016" ry="7.727" transform="matrix(.70085 -.71331 .72133 .69259 32.766 28.07)" fill="#93C6EB"/><path fill="#C2DEA3" d="m16.396 17.905 9.432-9.925 5.588 5.19-9.432 9.925z"/><rect width="6.956" height="5.217" rx="1" transform="matrix(.7339 .67927 -.68766 .72603 8.785 11.14)" fill="#C49A6C"/><path fill="#F57B20" d="M8.333 19.362H14.2v16.8H8.333z"/><path d="M8.333 5.434h5.866v14.548a2.933 2.933 0 1 1-5.867 0V5.434Z" fill="#F6A725"/><path fill="#F6EF3E" d="M7.519 18.042h7.499v1.649H7.519z"/><path fill="#F57B20" d="M28.346 19.362h5.867v16.8h-5.867z"/><path d="M28.346 5.434h5.867v14.548a2.933 2.933 0 1 1-5.867 0V5.434Z" fill="#F6A725"/><path fill="#F6EF3E" d="M27.533 18.042h7.499v1.649h-7.499z"/></g></symbol><symbol id="logo-text"><path d="M94.911 6.189C95.637 5.727 96 5.016 96 4.055c0-1.255-.523-2.242-1.568-2.96C93.416.366 92.22 0 90.84 0c-1.35 0-2.584.397-3.701 1.192-1.104.781-1.655 1.825-1.655 3.132 0 .487.152.89.457 1.211.305.308.74.462 1.307.462.551 0 .972-.154 1.263-.462.304-.32.457-.724.457-1.21-.03-.372.094-.75.37-1.135.276-.397.777-.595 1.502-.595.61.012 1.046.166 1.307.46.276.296.4.59.37.885 0 .205-.073.41-.218.615a2.031 2.031 0 0 1-.457.48c-.145.116-.385.282-.718.5-.334.218-.567.372-.697.462-.755.55-1.133 1.28-1.133 2.19 0 .449.16.827.48 1.135.333.294.776.442 1.328.442.551 0 .987-.148 1.306-.442.334-.308.501-.686.501-1.134 0-.193.036-.372.109-.539.073-.166.189-.32.348-.46.175-.142.32-.257.436-.347.13-.09.32-.205.566-.346.261-.14.443-.243.544-.307ZM76.305 10.235l3.857-4.771c.395-.577.932-.897 1.61-.963.678-.078 1.271.085 1.78.491.509.406.749.95.72 1.63v6.834c0 .432-.169.799-.508 1.1-.325.288-.72.432-1.187.432-.466 0-.868-.144-1.207-.432a1.443 1.443 0 0 1-.488-1.1V9.214l-3.856 4.772c-.396.576-.933.897-1.61.962-.679.079-1.272-.085-1.78-.49-.51-.406-.75-.95-.721-1.63V6.013c0-.432.162-.798.487-1.1a1.758 1.758 0 0 1 1.208-.451c.466 0 .862.15 1.187.452.339.3.508.667.508 1.1v4.221Z"/><path fill-rule="evenodd" clip-rule="evenodd" d="M58.967 13.389V5.975c0-.426-.178-.793-.535-1.1a1.725 1.725 0 0 0-1.219-.479 1.7 1.7 0 0 0-1.198.48c-.342.306-.513.673-.513 1.099v-.18c-.171-.4-.513-.74-1.027-1.019-.513-.293-1.097-.44-1.753-.44-1.284 0-2.467.473-3.55 1.42C48.115 6.7 47.588 8 47.588 9.651c0 1.692.52 3.004 1.56 3.937 1.042.932 2.232 1.399 3.573 1.399.656 0 1.233-.12 1.732-.36.5-.253.863-.553 1.09-.9.086.36.286.66.6.9.313.226.67.34 1.07.34.47 0 .876-.154 1.218-.46.357-.306.535-.68.535-1.12Zm-5.47-1.362c1.169 0 2.116-1.026 2.116-2.291 0-1.266-.947-2.291-2.116-2.291S51.38 8.47 51.38 9.735c0 1.266.948 2.292 2.117 2.292Z"/><path d="M43.081 8.237V6.094c0-.435.177-.804.53-1.108a1.793 1.793 0 0 1 1.236-.475c.47 0 .882.159 1.235.475.353.304.53.673.53 1.108v7.343c0 .435-.177.804-.53 1.108-.338.303-.75.455-1.235.455-.486 0-.905-.152-1.258-.455a1.434 1.434 0 0 1-.508-1.108v-2.175h-3.817v2.175c0 .435-.177.804-.53 1.108-.338.303-.75.455-1.235.455-.486 0-.905-.152-1.258-.455a1.434 1.434 0 0 1-.508-1.108V6.094c0-.435.177-.804.53-1.108a1.793 1.793 0 0 1 1.236-.475c.47 0 .882.159 1.235.475.353.304.53.673.53 1.108v2.143h3.817ZM33.962 4.511c.346 0 .642.131.89.394.247.262.37.867.37 1.234 0 .368-.123.747-.37 1.01-.247.262-.544.354-.89.354h-2.958v5.971c0 1.13-.994 1.526-1.99 1.526-.924 0-1.807-.5-1.807-1.515l.03-8.974h6.725ZM12.855 0v13.332c0 .44-.239.812-.57 1.118-.317.307-.815.46-1.27.46-.455 0-1.113-.153-1.444-.46a1.497 1.497 0 0 1-.476-1.118V3.008H3.772v10.322c0 .44-.165.813-.496 1.12-.317.306-.963.46-1.418.46-.455 0-1.051-.154-1.382-.46A1.497 1.497 0 0 1 0 13.33V0h12.855ZM24.637 13.365c-1.076 1.01-2.517 1.516-4.322 1.516-1.804 0-3.237-.505-4.298-1.516-1.092-1.026-1.638-2.308-1.638-3.847 0-1.554.546-2.836 1.638-3.847 1.06-1.01 2.494-1.516 4.298-1.516 1.805 0 3.246.505 4.322 1.516 1.077 1.026 1.615 2.308 1.615 3.847 0 1.539-.538 2.821-1.614 3.847Zm-2.802-5.43a1.835 1.835 0 0 0-1.116-.567 2.288 2.288 0 0 0-1.235.114c-.38.15-.704.407-.973.769-.254.362-.364.784-.333 1.267 0 .634.198 1.162.594 1.584.412.407.926.611 1.543.611.634 0 1.148-.196 1.544-.588.396-.408.594-.943.594-1.607 0-.633-.206-1.161-.618-1.584ZM64.022 4.462c2.024 0 7.417.03 7.417.03s.004 6.591.004 8.894c0 .443-.182.824-.546 1.145-.347.305-.662.457-1.191.457-.53 0-.8.04-1.164-.265-.347-.32-.667-.894-.667-1.337v-5.95H65.42c0 4.266 0 5.203-1.57 6.728-.58.55-1.325.824-2.235.824-.546 0-.867-.13-1.214-.436-.347-.32-.617-.832-.617-1.304 0-1.018.213-1.423.76-2.088 1.566 0 1.498-.38 1.4-3.266v-1.83c.017-.443.098-1.602.098-1.602h1.98ZM93.16 12.745c0 1.239-1.05 2.243-2.345 2.243-1.295 0-2.344-1.005-2.344-2.243s1.05-2.242 2.344-2.242c1.295 0 2.345 1.004 2.345 2.242Z"/></symbol></svg>